<svg version="1.1" id="Layer_1" xmlns="http://www.w3.org/2000/svg" xmlns:xlink="http://www.w3.org/1999/xlink" x="0px" y="0px"
	 width="100%" viewBox="0 0 900 379" enable-background="new 0 0 900 379" xml:space="preserve">
<path fill="#010101" opacity="000000" stroke="none" 
	d="
M691.000000,380.000000 
	C460.666656,380.000000 230.833328,380.000000 1.000000,380.000000 
	C1.000000,253.666672 1.000000,127.333336 1.000000,1.000000 
	C301.000000,1.000000 601.000000,1.000000 901.000000,1.000000 
	C901.000000,127.333336 901.000000,253.666672 901.000000,380.000000 
	C831.166687,380.000000 761.333313,380.000000 691.000000,380.000000 
M119.965370,217.311981 
	C127.737381,217.311981 135.509399,217.311981 143.698639,217.311981 
	C143.698639,263.335114 143.698639,308.754486 143.698639,354.354095 
	C172.171417,354.354095 200.210709,354.354095 228.397522,354.354095 
	C228.397522,245.452179 228.397522,136.889496 228.397522,28.201851 
	C200.080688,28.201851 172.011765,28.201851 143.429443,28.201851 
	C143.429443,67.194862 143.429443,105.916565 143.429443,144.580536 
	C134.804184,144.580536 126.696053,144.580536 118.080734,144.580536 
	C118.080734,105.622215 118.080734,66.911964 118.080734,28.263161 
	C89.516159,28.263161 61.464199,28.263161 33.443565,28.263161 
	C33.443565,137.147858 33.443565,245.697495 33.443565,354.359100 
	C61.781799,354.359100 89.829231,354.359100 118.124855,354.359100 
	C118.124855,352.204376 118.124855,350.380341 118.124855,348.556305 
	C118.124855,306.733734 118.112900,264.911163 118.163979,223.088638 
	C118.166275,221.207870 118.740013,219.327774 119.965370,217.311981 
M250.577667,75.945679 
	C264.491394,168.735016 278.405151,261.524353 292.334686,354.419250 
	C335.476471,354.419250 378.217804,354.419250 421.351929,354.419250 
	C435.736786,245.566483 450.092926,136.931290 464.459076,28.220165 
	C434.195831,28.220165 404.616211,28.220165 374.433594,28.220165 
	C367.981110,101.556679 361.549347,174.657532 355.211884,246.686768 
	C348.067963,174.420792 340.827454,101.177643 333.621704,28.286469 
	C302.743408,28.286469 273.201813,28.286469 243.436768,28.286469 
	C245.784485,44.142353 248.075592,59.615993 250.577667,75.945679 
M483.942566,171.390244 
	C475.867584,232.351654 467.792633,293.313049 459.715302,354.292358 
	C489.529327,354.292358 518.582825,354.292358 547.685364,354.292358 
	C549.383606,334.676453 551.047974,315.452606 552.720215,296.137207 
	C563.029846,296.137207 572.977783,296.137207 583.184448,296.137207 
	C584.615906,315.681702 586.033508,335.037262 587.456543,354.466919 
	C616.614197,354.466919 645.215576,354.466919 674.383423,354.466919 
	C658.157410,245.469238 641.976562,136.774857 625.813416,28.199505 
	C584.526306,28.199505 543.776978,28.199505 502.831604,28.199505 
	C496.538239,75.794067 490.276581,123.148666 483.942566,171.390244 
M765.274902,224.205933 
	C771.225098,228.754608 777.190002,233.284149 783.120850,237.857864 
	C788.056091,241.663773 791.802185,246.625793 792.444702,252.729797 
	C793.693481,264.594330 794.391846,276.544281 794.619141,288.472168 
	C794.687500,292.059357 792.903015,295.933105 791.156006,299.247986 
	C788.132385,304.985138 782.081482,307.160767 774.762573,305.904785 
	C769.083130,304.930145 766.203979,301.839203 764.782043,295.027130 
	C764.375610,293.079926 763.990112,291.087402 763.957397,289.109680 
	C763.704224,273.785675 763.537781,258.460205 763.350952,243.135117 
	C763.329651,241.388229 763.348083,239.640854 763.348083,238.000168 
	C736.701538,238.000168 710.779663,238.000168 683.575562,238.000168 
	C684.692383,257.096344 685.412476,275.862000 686.971497,294.557709 
	C689.329102,322.829987 705.194580,341.157959 730.715515,352.025269 
	C745.964172,358.518402 761.959534,361.144897 778.390930,361.434662 
	C803.332397,361.874542 827.038330,357.390869 848.341492,343.486359 
	C861.894348,334.640503 870.218628,322.427887 873.055420,306.438293 
	C877.259460,282.742126 876.666626,259.079529 873.436646,235.314011 
	C870.267822,211.998444 859.039368,193.672562 840.129211,180.134094 
	C825.127563,169.393845 809.688965,159.262192 794.404297,148.919617 
	C787.934692,144.541901 780.952881,140.809723 774.975952,135.853210 
	C770.765381,132.361481 766.541931,127.805344 764.632874,122.837311 
	C760.317688,111.608200 760.299500,99.705879 763.068970,87.938049 
	C763.516541,86.036598 764.427429,84.168564 765.463806,82.495468 
	C768.604492,77.425194 774.061401,75.357475 780.215820,76.690887 
	C785.619324,77.861618 788.367798,80.685143 788.945557,87.304184 
	C789.668091,95.581818 789.766113,103.917747 790.007019,112.232178 
	C790.145081,116.997337 790.031982,121.769775 790.031982,126.486008 
	C816.702148,126.486008 842.757629,126.486008 869.441833,126.486008 
	C868.890381,112.816467 868.423096,99.509003 867.802185,86.208717 
	C866.583496,60.101498 854.609497,41.328835 829.936707,31.477251 
	C796.476685,18.116968 762.424438,16.991037 728.412170,28.516298 
	C707.522583,35.594837 691.837097,49.092125 686.255615,71.505119 
	C680.962585,92.759636 680.530212,114.394104 683.557251,136.016159 
	C686.862976,159.628677 698.092224,178.493134 718.147583,191.931488 
	C733.765747,202.396622 749.161621,213.193558 765.274902,224.205933 
z"/>
<path fill="#FEFEFE" opacity="1.000000" stroke="none" 
	d="
M119.506485,217.379669 
	C118.740013,219.327774 118.166275,221.207870 118.163979,223.088638 
	C118.112900,264.911163 118.124855,306.733734 118.124855,348.556305 
	C118.124855,350.380341 118.124855,352.204376 118.124855,354.359100 
	C89.829231,354.359100 61.781799,354.359100 33.443565,354.359100 
	C33.443565,245.697495 33.443565,137.147858 33.443565,28.263161 
	C61.464199,28.263161 89.516159,28.263161 118.080734,28.263161 
	C118.080734,66.911964 118.080734,105.622215 118.080734,144.580536 
	C126.696053,144.580536 134.804184,144.580536 143.429443,144.580536 
	C143.429443,105.916565 143.429443,67.194862 143.429443,28.201851 
	C172.011765,28.201851 200.080688,28.201851 228.397522,28.201851 
	C228.397522,136.889496 228.397522,245.452179 228.397522,354.354095 
	C200.210709,354.354095 172.171417,354.354095 143.698639,354.354095 
	C143.698639,308.754486 143.698639,263.335114 143.698639,217.311981 
	C135.509399,217.311981 127.737381,217.311981 119.506485,217.379669 
z"/>
<path fill="#FEFEFE" opacity="1.000000" stroke="none" 
	d="
M250.472198,75.517654 
	C248.075592,59.615993 245.784485,44.142353 243.436768,28.286469 
	C273.201813,28.286469 302.743408,28.286469 333.621704,28.286469 
	C340.827454,101.177643 348.067963,174.420792 355.211884,246.686768 
	C361.549347,174.657532 367.981110,101.556679 374.433594,28.220165 
	C404.616211,28.220165 434.195831,28.220165 464.459076,28.220165 
	C450.092926,136.931290 435.736786,245.566483 421.351929,354.419250 
	C378.217804,354.419250 335.476471,354.419250 292.334686,354.419250 
	C278.405151,261.524353 264.491394,168.735016 250.472198,75.517654 
z"/>
<path fill="#FEFEFE" opacity="1.000000" stroke="none" 
	d="
M483.978760,170.946747 
	C490.276581,123.148666 496.538239,75.794067 502.831604,28.199505 
	C543.776978,28.199505 584.526306,28.199505 625.813416,28.199505 
	C641.976562,136.774857 658.157410,245.469238 674.383423,354.466919 
	C645.215576,354.466919 616.614197,354.466919 587.456543,354.466919 
	C586.033508,335.037262 584.615906,315.681702 583.184448,296.137207 
	C572.977783,296.137207 563.029846,296.137207 552.720215,296.137207 
	C551.047974,315.452606 549.383606,334.676453 547.685364,354.292358 
	C518.582825,354.292358 489.529327,354.292358 459.715302,354.292358 
	C467.792633,293.313049 475.867584,232.351654 483.978760,170.946747 
M555.894653,195.260956 
	C554.443481,209.399918 552.992249,223.538895 551.535706,237.729752 
	C561.848206,237.729752 571.269043,237.729752 580.340820,237.729752 
	C576.189392,193.747787 572.060913,150.008102 567.932434,106.268433 
	C567.572571,106.263138 567.212769,106.257835 566.852905,106.252541 
	C563.222412,135.621658 559.591858,164.990784 555.894653,195.260956 
z"/>
<path fill="#FEFEFE" opacity="1.000000" stroke="none" 
	d="
M764.965576,224.024475 
	C749.161621,213.193558 733.765747,202.396622 718.147583,191.931488 
	C698.092224,178.493134 686.862976,159.628677 683.557251,136.016159 
	C680.530212,114.394104 680.962585,92.759636 686.255615,71.505119 
	C691.837097,49.092125 707.522583,35.594837 728.412170,28.516298 
	C762.424438,16.991037 796.476685,18.116968 829.936707,31.477251 
	C854.609497,41.328835 866.583496,60.101498 867.802185,86.208717 
	C868.423096,99.509003 868.890381,112.816467 869.441833,126.486008 
	C842.757629,126.486008 816.702148,126.486008 790.031982,126.486008 
	C790.031982,121.769775 790.145081,116.997337 790.007019,112.232178 
	C789.766113,103.917747 789.668091,95.581818 788.945557,87.304184 
	C788.367798,80.685143 785.619324,77.861618 780.215820,76.690887 
	C774.061401,75.357475 768.604492,77.425194 765.463806,82.495468 
	C764.427429,84.168564 763.516541,86.036598 763.068970,87.938049 
	C760.299500,99.705879 760.317688,111.608200 764.632874,122.837311 
	C766.541931,127.805344 770.765381,132.361481 774.975952,135.853210 
	C780.952881,140.809723 787.934692,144.541901 794.404297,148.919617 
	C809.688965,159.262192 825.127563,169.393845 840.129211,180.134094 
	C859.039368,193.672562 870.267822,211.998444 873.436646,235.314011 
	C876.666626,259.079529 877.259460,282.742126 873.055420,306.438293 
	C870.218628,322.427887 861.894348,334.640503 848.341492,343.486359 
	C827.038330,357.390869 803.332397,361.874542 778.390930,361.434662 
	C761.959534,361.144897 745.964172,358.518402 730.715515,352.025269 
	C705.194580,341.157959 689.329102,322.829987 686.971497,294.557709 
	C685.412476,275.862000 684.692383,257.096344 683.575562,238.000168 
	C710.779663,238.000168 736.701538,238.000168 763.348083,238.000168 
	C763.348083,239.640854 763.329651,241.388229 763.350952,243.135117 
	C763.537781,258.460205 763.704224,273.785675 763.957397,289.109680 
	C763.990112,291.087402 764.375610,293.079926 764.782043,295.027130 
	C766.203979,301.839203 769.083130,304.930145 774.762573,305.904785 
	C782.081482,307.160767 788.132385,304.985138 791.156006,299.247986 
	C792.903015,295.933105 794.687500,292.059357 794.619141,288.472168 
	C794.391846,276.544281 793.693481,264.594330 792.444702,252.729797 
	C791.802185,246.625793 788.056091,241.663773 783.120850,237.857864 
	C777.190002,233.284149 771.225098,228.754608 764.965576,224.024475 
z"/>
<path fill="#040404" opacity="1.000000" stroke="none" 
	d="
M555.927979,194.810425 
	C559.591858,164.990784 563.222412,135.621658 566.852905,106.252541 
	C567.212769,106.257835 567.572571,106.263138 567.932434,106.268433 
	C572.060913,150.008102 576.189392,193.747787 580.340820,237.729752 
	C571.269043,237.729752 561.848206,237.729752 551.535706,237.729752 
	C552.992249,223.538895 554.443481,209.399918 555.927979,194.810425 
z"/>
</svg>