<svg version="1.1" id="Layer_1" xmlns="http://www.w3.org/2000/svg" xmlns:xlink="http://www.w3.org/1999/xlink" x="0px" y="0px"
	 width="100%" viewBox="0 0 900 900" enable-background="new 0 0 900 900" xml:space="preserve">
<path fill="#000000" opacity="0.000000" stroke="none" 
	d="
M592.000000,901.000000 
	C394.666656,901.000000 197.833328,901.000000 1.000000,901.000000 
	C1.000000,601.000000 1.000000,301.000000 1.000000,1.000000 
	C301.000000,1.000000 601.000000,1.000000 901.000000,1.000000 
	C901.000000,301.000000 901.000000,601.000000 901.000000,901.000000 
	C798.166687,901.000000 695.333313,901.000000 592.000000,901.000000 
M229.000000,496.500000 
	C229.000000,420.743622 229.000000,344.987244 229.000000,269.282166 
	C200.034210,269.282166 171.630600,269.282166 142.831970,269.282166 
	C142.831970,308.300354 142.831970,347.037994 142.831970,385.713745 
	C134.692123,385.713745 126.952347,385.713745 118.823776,385.713745 
	C118.823776,346.691376 118.823776,307.953735 118.823776,269.288269 
	C90.021942,269.288269 61.618252,269.288269 33.281620,269.288269 
	C33.281620,378.641296 33.281620,487.705811 33.281620,596.716858 
	C61.967770,596.716858 90.371399,596.716858 119.169342,596.716858 
	C119.169342,551.031433 119.169342,505.627899 119.169342,460.286560 
	C127.308540,460.286560 135.048325,460.286560 143.176193,460.286560 
	C143.176193,505.975403 143.176193,551.378967 143.176193,596.712097 
	C171.977341,596.712097 200.381027,596.712097 229.000000,596.712097 
	C229.000000,563.449768 229.000000,530.474915 229.000000,496.500000 
M360.000000,429.338715 
	C358.504974,446.549500 357.009918,463.760315 355.514893,480.971100 
	C353.624573,471.576813 352.753540,462.216370 352.016418,452.845459 
	C351.269470,443.349640 350.796295,433.830841 349.948395,424.344879 
	C348.755402,410.997345 347.316010,397.671906 346.004547,384.334808 
	C345.300049,377.170532 344.723907,369.992767 343.945312,362.836823 
	C342.693176,351.329132 341.270660,339.839935 340.018524,328.332245 
	C339.240051,321.177460 338.748657,313.990967 337.939514,306.840088 
	C336.712646,295.997253 335.032776,285.196411 334.151031,274.328613 
	C333.826996,270.335114 333.105835,268.871948 328.792419,268.902313 
	C301.464386,269.094696 274.134308,268.996124 246.804901,269.012482 
	C245.549301,269.013214 244.293793,269.195984 242.656769,269.323730 
	C259.103058,378.763794 275.487976,487.795593 291.865448,596.777771 
	C335.562775,596.777771 378.665497,596.777771 421.840698,596.777771 
	C436.284546,487.504944 450.700745,378.441193 465.135712,269.235413 
	C434.468018,269.235413 404.385590,269.235413 374.279572,269.235413 
	C373.507141,278.766846 372.778931,288.069000 371.991760,297.366180 
	C371.356476,304.870087 370.702728,312.373108 369.963470,319.867310 
	C368.680481,332.873718 367.263306,345.867126 366.022217,358.877411 
	C365.228210,367.200562 364.690765,375.547882 363.965210,383.877991 
	C362.672699,398.718262 361.324768,413.553711 360.000000,429.338715 
M505.500000,597.000000 
	C519.481812,597.000000 533.463623,597.000000 548.079834,597.000000 
	C549.818726,577.362000 551.543213,557.887085 553.272095,538.362183 
	C563.220093,538.362183 573.081909,538.362183 582.709534,538.362183 
	C584.144287,558.036377 585.551453,577.333252 586.961060,596.662781 
	C616.532776,596.662781 645.724731,596.662781 675.074524,596.662781 
	C673.709351,588.320007 672.311523,580.344055 671.117737,572.337646 
	C669.655945,562.533936 668.381897,552.702515 666.995300,542.887451 
	C665.609314,533.077271 664.239441,523.264282 662.761536,513.467773 
	C661.237854,503.367706 659.499023,493.299591 658.026306,483.192444 
	C656.549316,473.055634 655.423279,462.867004 653.893738,452.738770 
	C651.715393,438.314819 649.202942,423.941254 647.033081,409.516113 
	C645.195862,397.302368 643.738770,385.031769 641.936951,372.812347 
	C640.068481,360.141266 637.948303,347.507538 636.014526,334.845795 
	C634.812744,326.977112 633.801514,319.079468 632.617493,311.207947 
	C630.784119,299.019684 628.671082,286.868713 627.120422,274.645599 
	C626.631531,270.791870 626.072266,268.874420 621.486755,268.896149 
	C582.988525,269.078613 544.489136,268.997589 505.990051,269.010559 
	C504.707336,269.011017 503.424683,269.167328 502.421417,269.232788 
	C487.959564,378.568146 473.543213,487.559326 459.067413,597.000000 
	C474.233948,597.000000 489.366974,597.000000 505.500000,597.000000 
M790.731934,368.942291 
	C816.802979,368.942291 842.874023,368.942291 869.922852,368.942291 
	C868.920166,351.567139 868.443359,334.873657 866.766235,318.301666 
	C866.074646,311.468414 863.574280,304.523590 860.552673,298.279877 
	C853.447144,283.597656 839.631409,276.816986 825.450684,271.070862 
	C807.587585,263.832672 788.786255,262.697327 769.693970,262.871277 
	C750.181519,263.049011 731.633850,266.574127 714.585938,276.180450 
	C703.167603,282.614563 694.319214,291.611511 688.912048,303.911957 
	C682.175232,319.237091 681.913269,335.598480 681.262695,351.737610 
	C680.852112,361.923187 682.485352,372.292603 684.097778,382.437164 
	C687.450623,403.532745 697.952637,420.494293 715.487976,432.826965 
	C737.134888,448.051300 759.040161,462.912109 780.540710,478.338501 
	C786.326477,482.489746 791.210449,487.974243 792.049316,495.816986 
	C792.548584,500.484589 793.136536,505.163452 794.067078,509.759827 
	C796.027466,519.442932 795.305847,528.877136 792.002625,538.134094 
	C789.465210,545.244751 784.401611,547.810242 778.042908,547.883728 
	C771.098145,547.963989 766.862793,544.292847 765.278137,537.552612 
	C764.499695,534.241394 764.085266,530.772339 764.055298,527.369873 
	C763.925964,512.705933 764.006531,498.040192 763.989746,483.375092 
	C763.988159,481.949799 763.842834,480.524689 763.777222,479.334351 
	C736.928894,479.334351 710.524536,479.334351 682.753113,479.334351 
	C684.188354,500.464508 684.980347,521.237122 687.216248,541.853149 
	C688.716919,555.689575 694.246460,568.482422 704.797180,578.145325 
	C714.017090,586.589355 724.632629,593.106567 736.626526,596.970398 
	C755.954407,603.196716 775.640808,605.222229 795.980164,603.179260 
	C812.289734,601.541016 827.742920,597.770081 842.107361,589.944275 
	C850.593079,585.321106 858.215332,579.619629 864.088745,571.666687 
	C872.986755,559.618347 874.721313,545.518311 875.865173,531.365479 
	C876.587952,522.423035 876.259155,513.364929 875.924377,504.376495 
	C875.613586,496.033783 874.859924,487.694122 873.965881,479.389191 
	C871.632324,457.711151 862.858032,439.756744 845.464111,425.642212 
	C827.807678,411.314606 808.943237,398.965515 789.605103,387.203461 
	C776.583374,379.283173 763.474060,371.432281 762.399231,353.853699 
	C761.802612,344.096405 760.563049,334.224304 765.963745,325.165039 
	C768.779419,320.441956 773.341919,318.109070 779.252869,319.046783 
	C784.161560,319.825531 787.560913,322.307709 788.049988,327.804504 
	C788.553955,333.467926 789.671692,339.091858 789.919067,344.759338 
	C790.260437,352.577240 790.037537,360.419830 790.731934,368.942291 
z"/>
<path fill="#FFFFFF" opacity="1.000000" stroke="none" 
	d="
M229.000000,497.000000 
	C229.000000,530.474915 229.000000,563.449768 229.000000,596.712097 
	C200.381027,596.712097 171.977341,596.712097 143.176193,596.712097 
	C143.176193,551.378967 143.176193,505.975403 143.176193,460.286560 
	C135.048325,460.286560 127.308540,460.286560 119.169342,460.286560 
	C119.169342,505.627899 119.169342,551.031433 119.169342,596.716858 
	C90.371399,596.716858 61.967770,596.716858 33.281620,596.716858 
	C33.281620,487.705811 33.281620,378.641296 33.281620,269.288269 
	C61.618252,269.288269 90.021942,269.288269 118.823776,269.288269 
	C118.823776,307.953735 118.823776,346.691376 118.823776,385.713745 
	C126.952347,385.713745 134.692123,385.713745 142.831970,385.713745 
	C142.831970,347.037994 142.831970,308.300354 142.831970,269.282166 
	C171.630600,269.282166 200.034210,269.282166 229.000000,269.282166 
	C229.000000,344.987244 229.000000,420.743622 229.000000,497.000000 
z"/>
<path fill="#FFFFFF" opacity="1.000000" stroke="none" 
	d="
M360.000000,428.864929 
	C361.324768,413.553711 362.672699,398.718262 363.965210,383.877991 
	C364.690765,375.547882 365.228210,367.200562 366.022217,358.877411 
	C367.263306,345.867126 368.680481,332.873718 369.963470,319.867310 
	C370.702728,312.373108 371.356476,304.870087 371.991760,297.366180 
	C372.778931,288.069000 373.507141,278.766846 374.279572,269.235413 
	C404.385590,269.235413 434.468018,269.235413 465.135712,269.235413 
	C450.700745,378.441193 436.284546,487.504944 421.840698,596.777771 
	C378.665497,596.777771 335.562775,596.777771 291.865448,596.777771 
	C275.487976,487.795593 259.103058,378.763794 242.656769,269.323730 
	C244.293793,269.195984 245.549301,269.013214 246.804901,269.012482 
	C274.134308,268.996124 301.464386,269.094696 328.792419,268.902313 
	C333.105835,268.871948 333.826996,270.335114 334.151031,274.328613 
	C335.032776,285.196411 336.712646,295.997253 337.939514,306.840088 
	C338.748657,313.990967 339.240051,321.177460 340.018524,328.332245 
	C341.270660,339.839935 342.693176,351.329132 343.945312,362.836823 
	C344.723907,369.992767 345.300049,377.170532 346.004547,384.334808 
	C347.316010,397.671906 348.755402,410.997345 349.948395,424.344879 
	C350.796295,433.830841 351.269470,443.349640 352.016418,452.845459 
	C352.753540,462.216370 353.624573,471.576813 355.514893,480.971100 
	C357.009918,463.760315 358.504974,446.549500 360.000000,428.864929 
z"/>
<path fill="#FFFFFF" opacity="1.000000" stroke="none" 
	d="
M505.000000,597.000000 
	C489.366974,597.000000 474.233948,597.000000 459.067413,597.000000 
	C473.543213,487.559326 487.959564,378.568146 502.421417,269.232788 
	C503.424683,269.167328 504.707336,269.011017 505.990051,269.010559 
	C544.489136,268.997589 582.988525,269.078613 621.486755,268.896149 
	C626.072266,268.874420 626.631531,270.791870 627.120422,274.645599 
	C628.671082,286.868713 630.784119,299.019684 632.617493,311.207947 
	C633.801514,319.079468 634.812744,326.977112 636.014526,334.845795 
	C637.948303,347.507538 640.068481,360.141266 641.936951,372.812347 
	C643.738770,385.031769 645.195862,397.302368 647.033081,409.516113 
	C649.202942,423.941254 651.715393,438.314819 653.893738,452.738770 
	C655.423279,462.867004 656.549316,473.055634 658.026306,483.192444 
	C659.499023,493.299591 661.237854,503.367706 662.761536,513.467773 
	C664.239441,523.264282 665.609314,533.077271 666.995300,542.887451 
	C668.381897,552.702515 669.655945,562.533936 671.117737,572.337646 
	C672.311523,580.344055 673.709351,588.320007 675.074524,596.662781 
	C645.724731,596.662781 616.532776,596.662781 586.961060,596.662781 
	C585.551453,577.333252 584.144287,558.036377 582.709534,538.362183 
	C573.081909,538.362183 563.220093,538.362183 553.272095,538.362183 
	C551.543213,557.887085 549.818726,577.362000 548.079834,597.000000 
	C533.463623,597.000000 519.481812,597.000000 505.000000,597.000000 
M579.000000,467.571350 
	C578.660828,463.822205 578.388855,460.065552 577.970459,456.325256 
	C576.339111,441.738556 574.458496,427.176453 573.060486,412.567902 
	C571.778931,399.177185 571.030457,385.735962 569.983093,372.321991 
	C569.588684,367.270172 569.014771,362.232300 568.512085,357.078857 
	C567.908447,357.078857 566.713562,357.008575 566.703369,357.088745 
	C561.521240,397.894623 556.419189,438.710693 551.256836,480.000000 
	C560.322510,480.000000 568.293884,480.000000 576.265198,480.000000 
	C577.392334,480.000000 578.519470,480.000000 580.221313,480.000000 
	C579.782227,475.864166 579.391113,472.179932 579.000000,467.571350 
z"/>
<path fill="#FFFFFF" opacity="1.000000" stroke="none" 
	d="
M790.394104,368.597046 
	C790.037537,360.419830 790.260437,352.577240 789.919067,344.759338 
	C789.671692,339.091858 788.553955,333.467926 788.049988,327.804504 
	C787.560913,322.307709 784.161560,319.825531 779.252869,319.046783 
	C773.341919,318.109070 768.779419,320.441956 765.963745,325.165039 
	C760.563049,334.224304 761.802612,344.096405 762.399231,353.853699 
	C763.474060,371.432281 776.583374,379.283173 789.605103,387.203461 
	C808.943237,398.965515 827.807678,411.314606 845.464111,425.642212 
	C862.858032,439.756744 871.632324,457.711151 873.965881,479.389191 
	C874.859924,487.694122 875.613586,496.033783 875.924377,504.376495 
	C876.259155,513.364929 876.587952,522.423035 875.865173,531.365479 
	C874.721313,545.518311 872.986755,559.618347 864.088745,571.666687 
	C858.215332,579.619629 850.593079,585.321106 842.107361,589.944275 
	C827.742920,597.770081 812.289734,601.541016 795.980164,603.179260 
	C775.640808,605.222229 755.954407,603.196716 736.626526,596.970398 
	C724.632629,593.106567 714.017090,586.589355 704.797180,578.145325 
	C694.246460,568.482422 688.716919,555.689575 687.216248,541.853149 
	C684.980347,521.237122 684.188354,500.464508 682.753113,479.334351 
	C710.524536,479.334351 736.928894,479.334351 763.777222,479.334351 
	C763.842834,480.524689 763.988159,481.949799 763.989746,483.375092 
	C764.006531,498.040192 763.925964,512.705933 764.055298,527.369873 
	C764.085266,530.772339 764.499695,534.241394 765.278137,537.552612 
	C766.862793,544.292847 771.098145,547.963989 778.042908,547.883728 
	C784.401611,547.810242 789.465210,545.244751 792.002625,538.134094 
	C795.305847,528.877136 796.027466,519.442932 794.067078,509.759827 
	C793.136536,505.163452 792.548584,500.484589 792.049316,495.816986 
	C791.210449,487.974243 786.326477,482.489746 780.540710,478.338501 
	C759.040161,462.912109 737.134888,448.051300 715.487976,432.826965 
	C697.952637,420.494293 687.450623,403.532745 684.097778,382.437164 
	C682.485352,372.292603 680.852112,361.923187 681.262695,351.737610 
	C681.913269,335.598480 682.175232,319.237091 688.912048,303.911957 
	C694.319214,291.611511 703.167603,282.614563 714.585938,276.180450 
	C731.633850,266.574127 750.181519,263.049011 769.693970,262.871277 
	C788.786255,262.697327 807.587585,263.832672 825.450684,271.070862 
	C839.631409,276.816986 853.447144,283.597656 860.552673,298.279877 
	C863.574280,304.523590 866.074646,311.468414 866.766235,318.301666 
	C868.443359,334.873657 868.920166,351.567139 869.922852,368.942291 
	C842.874023,368.942291 816.802979,368.942291 790.394104,368.597046 
z"/>
<path fill="#000000" opacity="1.000000" stroke="none" 
	d="
M579.000000,468.033508 
	C579.391113,472.179932 579.782227,475.864166 580.221313,480.000000 
	C578.519470,480.000000 577.392334,480.000000 576.265198,480.000000 
	C568.293884,480.000000 560.322510,480.000000 551.256836,480.000000 
	C556.419189,438.710693 561.521240,397.894623 566.703369,357.088745 
	C566.713562,357.008575 567.908447,357.078857 568.512085,357.078857 
	C569.014771,362.232300 569.588684,367.270172 569.983093,372.321991 
	C571.030457,385.735962 571.778931,399.177185 573.060486,412.567902 
	C574.458496,427.176453 576.339111,441.738556 577.970459,456.325256 
	C578.388855,460.065552 578.660828,463.822205 579.000000,468.033508 
z"/>
</svg>