<svg version="1.1" id="Layer_1" xmlns="http://www.w3.org/2000/svg" xmlns:xlink="http://www.w3.org/1999/xlink" x="0px" y="0px"
	 width="100%" viewBox="0 0 601 601" enable-background="new 0 0 601 601" xml:space="preserve">
<path fill="#010101" opacity="0.000000" stroke="none" 
	d="
M398.000000,602.000000 
	C265.333344,602.000000 133.166672,602.000000 1.000000,602.000000 
	C1.000000,401.666656 1.000000,201.333328 1.000000,1.000000 
	C201.333328,1.000000 401.666656,1.000000 602.000000,1.000000 
	C602.000000,201.333328 602.000000,401.666656 602.000000,602.000000 
	C534.166687,602.000000 466.333344,602.000000 398.000000,602.000000 
M162.928879,287.500000 
	C162.928879,238.930740 162.928879,190.361481 162.928879,141.750702 
	C145.271439,141.750702 128.319641,141.750702 110.875717,141.750702 
	C110.875717,165.489365 110.875717,189.066010 110.875717,212.916656 
	C105.491859,212.916656 100.599838,212.916656 95.197357,212.916656 
	C95.197357,189.104721 95.197357,165.531555 95.197357,141.856583 
	C77.626183,141.856583 60.566128,141.856583 43.369762,141.856583 
	C43.369762,208.523422 43.369762,274.916412 43.369762,341.481537 
	C60.699249,341.481537 77.761497,341.481537 95.256973,341.481537 
	C95.256973,313.438629 95.256973,285.685394 95.256973,257.812836 
	C100.701302,257.812836 105.694237,257.812836 111.143326,257.812836 
	C111.143326,286.044708 111.143326,313.778656 111.143326,341.372864 
	C128.662247,341.372864 145.708328,341.372864 162.928879,341.372864 
	C162.928879,323.481018 162.928879,305.990509 162.928879,287.500000 
M178.588425,141.582001 
	C176.485870,141.582001 174.383316,141.582001 171.949371,141.582001 
	C182.022980,208.668900 191.997086,275.093109 201.979614,341.573456 
	C228.500366,341.573456 254.612396,341.573456 281.028381,341.573456 
	C289.827087,274.987885 298.604736,208.561768 307.404266,141.970093 
	C288.785919,141.970093 270.769318,141.970093 252.262741,141.970093 
	C248.325150,186.662476 244.417603,231.013916 240.513565,275.356934 
	C236.094498,230.863220 231.675430,186.369492 227.227173,141.581955 
	C210.823181,141.581955 195.196243,141.581955 178.588425,141.582001 
M320.966309,217.442368 
	C315.508728,258.744446 310.051178,300.046509 304.577667,341.469238 
	C322.996674,341.469238 340.561951,341.469238 358.445312,341.469238 
	C359.499908,329.495209 360.530853,317.789581 361.567993,306.014008 
	C367.977356,306.014008 373.912415,306.014008 380.198334,306.014008 
	C381.099579,317.954163 381.985535,329.691345 382.882965,341.580902 
	C400.710907,341.580902 418.148041,341.580902 435.715546,341.580902 
	C435.715546,340.424957 435.837891,339.446289 435.698120,338.506622 
	C426.126587,274.161316 416.505280,209.823410 407.025909,145.464584 
	C406.540009,142.165649 405.239868,141.504288 402.223907,141.521469 
	C382.069885,141.636414 361.914948,141.580994 341.760284,141.580872 
	C338.298492,141.580856 334.836700,141.580872 331.014252,141.580872 
	C327.659546,166.809311 324.352386,191.680313 320.966309,217.442368 
M507.880402,214.678482 
	C503.941010,211.898911 499.739685,209.420868 496.118622,206.274887 
	C489.292969,200.344757 486.772339,182.536301 492.041718,175.236465 
	C493.643402,173.017639 497.405396,171.577393 500.326111,171.290894 
	C503.908142,170.939499 505.878571,173.933731 506.218933,177.451126 
	C506.618622,181.582138 506.851166,185.735382 506.983429,189.884491 
	C507.108704,193.813965 507.010376,197.750549 507.010376,201.640503 
	C523.415222,201.640503 539.163269,201.640503 555.626831,201.640503 
	C555.208191,192.718231 554.794922,184.106689 554.401917,175.494202 
	C553.545898,156.732956 542.142212,146.760101 525.561584,141.505600 
	C508.497467,136.097870 491.093964,135.645844 473.854218,140.396851 
	C457.498077,144.904343 445.094177,154.325485 442.644623,172.211945 
	C441.164764,183.017487 440.771362,194.155792 441.500580,205.036636 
	C442.584869,221.216110 450.496429,233.895203 464.257050,242.971954 
	C476.049835,250.750687 487.407471,259.186249 499.117188,267.094971 
	C505.534058,271.428986 509.318298,277.237488 509.581757,284.848694 
	C509.815918,291.613434 509.800507,298.503723 508.752167,305.158508 
	C507.930634,310.373627 503.762207,312.506378 498.729706,312.085205 
	C493.523071,311.649506 491.545715,308.136902 491.227325,303.645752 
	C490.803802,297.672119 490.847534,291.662811 490.771973,285.667816 
	C490.707672,280.568024 490.758698,275.466797 490.758698,270.360901 
	C474.280853,270.360901 458.520386,270.360901 441.291901,270.360901 
	C442.486084,283.910797 443.239899,297.144257 444.931519,310.256714 
	C446.431122,321.880981 453.080048,330.541046 463.345978,336.096802 
	C487.747467,349.302551 512.612610,349.128845 537.545471,337.770844 
	C550.442017,331.895874 557.858459,321.482635 558.604187,307.389496 
	C559.252319,295.140350 558.995239,282.786163 558.237732,270.534058 
	C557.258606,254.697113 549.113403,242.604431 536.280151,233.659775 
	C527.139343,227.288681 517.774780,221.238541 507.880402,214.678482 
M46.420109,420.062744 
	C52.018597,423.945435 57.397602,428.206024 63.270222,431.616730 
	C70.892853,436.043884 72.799400,442.629639 72.038567,450.680420 
	C71.702049,454.241180 70.847885,457.582489 66.416351,457.453674 
	C62.233349,457.332092 62.136349,453.881836 62.063129,450.858215 
	C61.943821,445.931427 62.030922,440.999664 62.030922,436.189423 
	C53.264030,436.189423 45.177654,436.189423 37.137215,436.189423 
	C37.137215,441.439301 36.932423,446.418182 37.179497,451.374512 
	C37.707333,461.963165 43.047665,469.235535 53.074036,472.705444 
	C60.577881,475.302399 68.314713,475.767914 76.175613,474.241028 
	C91.765579,471.212891 97.629341,464.455414 97.894142,448.754700 
	C97.955734,445.102448 97.642029,441.441803 97.448799,437.787750 
	C96.934036,428.053223 92.191666,420.803986 84.206627,415.518158 
	C78.796738,411.936981 73.312553,408.467712 67.914505,404.869019 
	C62.141167,401.020142 59.762218,395.027405 61.921097,388.472626 
	C62.505276,386.698944 64.827934,385.497894 66.352654,384.034027 
	C67.644791,385.656311 69.755981,387.141479 70.055420,388.929962 
	C70.645027,392.451691 70.229080,396.141785 70.229080,399.788757 
	C79.137314,399.788757 87.220581,399.788757 95.927116,399.788757 
	C95.622330,394.858337 95.374809,390.251587 95.044502,385.650757 
	C94.533592,378.534302 90.998116,373.530487 84.516853,370.502380 
	C74.738113,365.933655 64.540215,365.490051 54.264099,367.865723 
	C42.979568,370.474548 37.600830,376.339783 36.392284,387.767120 
	C35.145126,399.559601 35.199066,411.269836 46.420109,420.062744 
M422.077789,450.499969 
	C422.077789,457.918457 422.077789,465.336975 422.077789,472.681030 
	C431.129242,472.681030 439.398895,472.681030 448.115692,472.681030 
	C448.115692,470.812073 448.115601,469.187103 448.115723,467.562134 
	C448.117065,449.566498 448.092773,431.570801 448.145142,413.575287 
	C448.153839,410.586914 448.113403,407.500732 448.846222,404.652863 
	C449.218262,403.207092 451.262726,402.191620 452.551147,400.981659 
	C453.679993,402.373108 455.405182,403.615814 455.797943,405.190796 
	C456.387604,407.555450 456.086975,410.153015 456.088928,412.651581 
	C456.103149,430.980469 456.098419,449.309357 456.099670,467.638245 
	C456.099762,469.252136 456.099701,470.865997 456.099701,472.625946 
	C465.029816,472.625946 473.417236,472.625946 481.824127,472.625946 
	C481.824127,448.855225 481.825378,425.388184 481.815796,401.921112 
	C481.815613,401.425873 481.702301,400.928833 481.622528,400.435760 
	C480.056610,390.758484 474.289429,386.011719 464.411224,386.024963 
	C457.857941,386.033752 452.754211,388.934814 448.316223,394.914581 
	C448.316223,391.679871 448.316223,389.887573 448.316223,387.846069 
	C439.586334,387.846069 431.027985,387.846069 422.077789,387.846069 
	C422.077789,408.574982 422.077789,429.037476 422.077789,450.499969 
M268.954529,408.500122 
	C268.954529,401.581635 268.954529,394.663147 268.954529,387.750732 
	C259.964172,387.750732 251.676773,387.750732 242.931595,387.750732 
	C242.931595,389.543121 242.932144,391.170197 242.931503,392.797241 
	C242.923996,411.792755 242.933746,430.788269 242.886078,449.783691 
	C242.880249,452.104584 242.870178,454.508331 242.264984,456.709503 
	C241.966858,457.793854 240.255188,459.259308 239.270599,459.195862 
	C237.956726,459.111145 236.090851,457.969666 235.611542,456.807861 
	C234.888718,455.055786 235.032776,452.893982 235.028030,450.905792 
	C234.981888,431.577179 234.981476,412.248413 234.968369,392.919708 
	C234.967194,391.188446 234.968201,389.457184 234.968201,387.775238 
	C225.925690,387.775238 217.645935,387.775238 208.948746,387.775238 
	C208.948746,401.593689 208.929153,415.222382 208.955444,428.850983 
	C208.973770,438.348206 208.805862,447.854980 209.172409,457.340027 
	C209.612625,468.731384 215.712952,474.155518 227.007294,474.283173 
	C233.225311,474.353424 238.115616,471.840454 242.535675,466.930298 
	C242.701584,469.326599 242.818436,471.014465 242.931656,472.649780 
	C251.702469,472.649780 260.129242,472.649780 268.954529,472.649780 
	C268.954529,451.417114 268.954529,430.458618 268.954529,408.500122 
M354.662842,408.278503 
	C354.745331,424.051514 354.299438,439.851990 355.116547,455.586853 
	C355.576752,464.449005 361.222900,470.983032 370.156799,472.632111 
	C377.245605,473.940674 384.786682,474.496918 391.901276,473.598938 
	C404.926147,471.954987 412.547363,463.077179 413.001129,449.827484 
	C413.456329,436.536346 413.522064,423.206696 413.070831,409.917297 
	C412.683777,398.518799 406.055267,390.200897 394.933990,387.769196 
	C388.441864,386.349670 381.337036,386.106079 374.758728,387.061310 
	C362.766479,388.802643 356.843292,395.538300 354.662842,408.278503 
M157.742310,466.216766 
	C159.817505,461.413788 163.374893,456.704651 163.685898,451.790009 
	C164.567261,437.863373 164.508774,423.840607 164.075424,409.878815 
	C163.721390,398.472229 157.011414,390.304199 145.901688,387.712372 
	C140.022995,386.340912 133.620499,385.878265 127.635780,386.571167 
	C114.482178,388.094055 106.803650,395.161041 105.913620,408.513428 
	C104.866669,424.219757 105.543900,440.072845 106.116348,455.838928 
	C106.332779,461.799744 109.731682,466.826996 114.995529,470.178558 
	C125.728165,477.012024 147.592239,475.226379 157.742310,466.216766 
M505.982635,472.776337 
	C512.590332,473.178711 519.234070,474.215271 525.797791,473.842316 
	C537.054138,473.202759 543.743774,467.070435 545.686279,456.911743 
	C548.921326,439.993317 544.952515,431.900757 529.630249,424.032440 
	C526.082947,422.210815 522.630737,420.204010 519.087219,418.374603 
	C513.945740,415.720123 512.290527,411.428558 512.913879,405.917145 
	C513.226379,403.153656 514.212402,400.518646 517.296753,401.222382 
	C518.826843,401.571472 520.512085,404.096161 520.906738,405.903107 
	C521.512634,408.677155 521.065979,411.681122 521.065979,414.779510 
	C528.655334,414.779510 535.307251,414.788177 541.959106,414.765411 
	C542.587891,414.763245 543.215942,414.563568 544.226807,414.389862 
	C544.226807,411.971313 544.270752,409.674347 544.219299,407.379486 
	C543.983215,396.857544 540.250305,391.308472 530.271057,388.108490 
	C520.158508,384.865814 509.948486,384.999451 499.999237,389.148315 
	C494.909241,391.270905 491.170471,394.955566 490.388824,400.418152 
	C489.620453,405.787994 489.583405,411.322357 489.817078,416.759155 
	C490.059082,422.389679 492.906067,426.943665 497.665588,429.994629 
	C503.391449,433.664917 509.082489,437.484589 515.162598,440.480591 
	C521.277039,443.493530 522.855225,448.078613 522.159851,454.275452 
	C521.847839,457.055756 521.125549,459.135834 517.898926,459.369537 
	C514.487061,459.616608 513.484741,457.303558 513.309265,454.686066 
	C513.057617,450.932495 513.245056,447.149506 513.245056,443.095734 
	C508.782867,443.095734 505.147583,443.095764 501.512299,443.095764 
	C497.746368,443.095764 493.980469,443.095734 490.281036,443.095734 
	C488.824371,460.728210 492.495270,467.784698 505.982635,472.776337 
M199.958862,471.197662 
	C199.958862,437.134979 199.958862,403.072266 199.958862,369.171631 
	C190.654633,369.171631 182.051819,369.171631 173.402679,369.171631 
	C173.402679,403.809326 173.402679,438.185638 173.402679,472.137238 
	C182.419418,472.137238 191.117889,472.137238 199.958862,471.197662 
M278.561768,389.464966 
	C277.105316,389.598602 275.648834,389.732269 274.223633,389.863037 
	C274.223633,394.259338 274.223633,398.384247 274.223633,402.662537 
	C275.997803,402.861633 277.583649,403.039581 279.703156,403.277435 
	C279.703156,405.198975 279.695190,406.990723 279.704376,408.782410 
	C279.790497,425.606354 279.790802,442.431458 280.013214,459.253632 
	C280.097260,465.612183 283.423523,470.763855 288.950623,471.573883 
	C297.059296,472.762268 305.332733,472.826874 313.903564,473.394623 
	C313.903564,470.115173 313.903595,467.973267 313.903595,465.831360 
	C313.903595,463.723969 313.903564,461.616577 313.903564,459.589813 
	C305.951874,458.665985 305.893677,458.666412 305.836334,451.123505 
	C305.766663,441.961761 305.805817,432.799194 305.801483,423.636963 
	C305.798279,416.851562 305.800842,410.066193 305.800842,403.198334 
	C308.396851,402.968903 310.460419,402.786530 312.570679,402.600037 
	C312.570679,398.154572 312.570679,394.078796 312.570679,389.878326 
	C310.251373,389.648804 308.175781,389.443420 305.725098,389.200897 
	C305.725098,384.830597 305.725098,380.724854 305.725098,376.365875 
	C296.921875,376.365875 288.529724,376.365875 279.978241,376.365875 
	C279.745178,380.713867 279.524933,384.822754 278.561768,389.464966 
M326.647095,387.563873 
	C324.040466,387.563873 321.433838,387.563873 318.741455,387.563873 
	C318.741455,416.280701 318.741455,444.375122 318.741455,472.697937 
	C327.578583,472.697937 336.149963,472.697937 344.886353,472.697937 
	C344.886353,444.260284 344.886353,416.063690 344.886353,387.563904 
	C338.905212,387.563904 333.256439,387.563904 326.647095,387.563873 
M325.614319,382.096222 
	C332.038879,382.096222 338.463440,382.096222 344.999023,382.096222 
	C344.999023,377.428864 344.999023,373.357239 344.999023,369.265381 
	C336.086304,369.265381 327.407776,369.265381 318.836090,369.265381 
	C318.836090,373.700989 318.836090,377.763153 318.836090,382.096222 
	C321.018066,382.096222 322.834381,382.096222 325.614319,382.096222 
z"/>
<path fill="#FEFEFE" opacity="1.000000" stroke="none" 
	d="
M162.928879,288.000000 
	C162.928879,305.990509 162.928879,323.481018 162.928879,341.372864 
	C145.708328,341.372864 128.662247,341.372864 111.143326,341.372864 
	C111.143326,313.778656 111.143326,286.044708 111.143326,257.812836 
	C105.694237,257.812836 100.701302,257.812836 95.256973,257.812836 
	C95.256973,285.685394 95.256973,313.438629 95.256973,341.481537 
	C77.761497,341.481537 60.699249,341.481537 43.369762,341.481537 
	C43.369762,274.916412 43.369762,208.523422 43.369762,141.856583 
	C60.566128,141.856583 77.626183,141.856583 95.197357,141.856583 
	C95.197357,165.531555 95.197357,189.104721 95.197357,212.916656 
	C100.599838,212.916656 105.491859,212.916656 110.875717,212.916656 
	C110.875717,189.066010 110.875717,165.489365 110.875717,141.750702 
	C128.319641,141.750702 145.271439,141.750702 162.928879,141.750702 
	C162.928879,190.361481 162.928879,238.930740 162.928879,288.000000 
z"/>
<path fill="#FEFEFE" opacity="1.000000" stroke="none" 
	d="
M179.078857,141.581970 
	C195.196243,141.581955 210.823181,141.581955 227.227173,141.581955 
	C231.675430,186.369492 236.094498,230.863220 240.511810,275.361145 
	C244.417603,231.013916 248.325150,186.662476 252.262741,141.970093 
	C270.769318,141.970093 288.785919,141.970093 307.404266,141.970093 
	C298.604736,208.561768 289.827087,274.987885 281.028381,341.573456 
	C254.612396,341.573456 228.500366,341.573456 201.979614,341.573456 
	C191.997086,275.093109 182.022980,208.668900 171.949371,141.582001 
	C174.383316,141.582001 176.485870,141.582001 179.078857,141.581970 
z"/>
<path fill="#FDFDFD" opacity="1.000000" stroke="none" 
	d="
M321.005737,216.996841 
	C324.352386,191.680313 327.659546,166.809311 331.014252,141.580872 
	C334.836700,141.580872 338.298492,141.580856 341.760284,141.580872 
	C361.914948,141.580994 382.069885,141.636414 402.223907,141.521469 
	C405.239868,141.504288 406.540009,142.165649 407.025909,145.464584 
	C416.505280,209.823410 426.126587,274.161316 435.698120,338.506622 
	C435.837891,339.446289 435.715546,340.424957 435.715546,341.580902 
	C418.148041,341.580902 400.710907,341.580902 382.882965,341.580902 
	C381.985535,329.691345 381.099579,317.954163 380.198334,306.014008 
	C373.912415,306.014008 367.977356,306.014008 361.567993,306.014008 
	C360.530853,317.789581 359.499908,329.495209 358.445312,341.469238 
	C340.561951,341.469238 322.996674,341.469238 304.577667,341.469238 
	C310.051178,300.046509 315.508728,258.744446 321.005737,216.996841 
M366.703400,270.327484 
	C370.602386,270.327484 374.501373,270.327484 378.521057,270.327484 
	C375.914185,242.781738 373.381287,216.017807 370.848419,189.253860 
	C370.598267,189.254944 370.348114,189.256042 370.097961,189.257126 
	C366.904358,216.118561 363.710754,242.979980 360.459351,270.327454 
	C362.832581,270.327454 364.308380,270.327454 366.703400,270.327484 
z"/>
<path fill="#FDFDFD" opacity="1.000000" stroke="none" 
	d="
M508.195251,214.861816 
	C517.774780,221.238541 527.139343,227.288681 536.280151,233.659775 
	C549.113403,242.604431 557.258606,254.697113 558.237732,270.534058 
	C558.995239,282.786163 559.252319,295.140350 558.604187,307.389496 
	C557.858459,321.482635 550.442017,331.895874 537.545471,337.770844 
	C512.612610,349.128845 487.747467,349.302551 463.345978,336.096802 
	C453.080048,330.541046 446.431122,321.880981 444.931519,310.256714 
	C443.239899,297.144257 442.486084,283.910797 441.291901,270.360901 
	C458.520386,270.360901 474.280853,270.360901 490.758698,270.360901 
	C490.758698,275.466797 490.707672,280.568024 490.771973,285.667816 
	C490.847534,291.662811 490.803802,297.672119 491.227325,303.645752 
	C491.545715,308.136902 493.523071,311.649506 498.729706,312.085205 
	C503.762207,312.506378 507.930634,310.373627 508.752167,305.158508 
	C509.800507,298.503723 509.815918,291.613434 509.581757,284.848694 
	C509.318298,277.237488 505.534058,271.428986 499.117188,267.094971 
	C487.407471,259.186249 476.049835,250.750687 464.257050,242.971954 
	C450.496429,233.895203 442.584869,221.216110 441.500580,205.036636 
	C440.771362,194.155792 441.164764,183.017487 442.644623,172.211945 
	C445.094177,154.325485 457.498077,144.904343 473.854218,140.396851 
	C491.093964,135.645844 508.497467,136.097870 525.561584,141.505600 
	C542.142212,146.760101 553.545898,156.732956 554.401917,175.494202 
	C554.794922,184.106689 555.208191,192.718231 555.626831,201.640503 
	C539.163269,201.640503 523.415222,201.640503 507.010376,201.640503 
	C507.010376,197.750549 507.108704,193.813965 506.983429,189.884491 
	C506.851166,185.735382 506.618622,181.582138 506.218933,177.451126 
	C505.878571,173.933731 503.908142,170.939499 500.326111,171.290894 
	C497.405396,171.577393 493.643402,173.017639 492.041718,175.236465 
	C486.772339,182.536301 489.292969,200.344757 496.118622,206.274887 
	C499.739685,209.420868 503.941010,211.898911 508.195251,214.861816 
z"/>
<path fill="#FBFBFB" opacity="1.000000" stroke="none" 
	d="
M46.110794,419.885986 
	C35.199066,411.269836 35.145126,399.559601 36.392284,387.767120 
	C37.600830,376.339783 42.979568,370.474548 54.264099,367.865723 
	C64.540215,365.490051 74.738113,365.933655 84.516853,370.502380 
	C90.998116,373.530487 94.533592,378.534302 95.044502,385.650757 
	C95.374809,390.251587 95.622330,394.858337 95.927116,399.788757 
	C87.220581,399.788757 79.137314,399.788757 70.229080,399.788757 
	C70.229080,396.141785 70.645027,392.451691 70.055420,388.929962 
	C69.755981,387.141479 67.644791,385.656311 66.352654,384.034027 
	C64.827934,385.497894 62.505276,386.698944 61.921097,388.472626 
	C59.762218,395.027405 62.141167,401.020142 67.914505,404.869019 
	C73.312553,408.467712 78.796738,411.936981 84.206627,415.518158 
	C92.191666,420.803986 96.934036,428.053223 97.448799,437.787750 
	C97.642029,441.441803 97.955734,445.102448 97.894142,448.754700 
	C97.629341,464.455414 91.765579,471.212891 76.175613,474.241028 
	C68.314713,475.767914 60.577881,475.302399 53.074036,472.705444 
	C43.047665,469.235535 37.707333,461.963165 37.179497,451.374512 
	C36.932423,446.418182 37.137215,441.439301 37.137215,436.189423 
	C45.177654,436.189423 53.264030,436.189423 62.030922,436.189423 
	C62.030922,440.999664 61.943821,445.931427 62.063129,450.858215 
	C62.136349,453.881836 62.233349,457.332092 66.416351,457.453674 
	C70.847885,457.582489 71.702049,454.241180 72.038567,450.680420 
	C72.799400,442.629639 70.892853,436.043884 63.270222,431.616730 
	C57.397602,428.206024 52.018597,423.945435 46.110794,419.885986 
z"/>
<path fill="#FCFCFC" opacity="1.000000" stroke="none" 
	d="
M422.077789,449.999969 
	C422.077789,429.037476 422.077789,408.574982 422.077789,387.846069 
	C431.027985,387.846069 439.586334,387.846069 448.316223,387.846069 
	C448.316223,389.887573 448.316223,391.679871 448.316223,394.914581 
	C452.754211,388.934814 457.857941,386.033752 464.411224,386.024963 
	C474.289429,386.011719 480.056610,390.758484 481.622528,400.435760 
	C481.702301,400.928833 481.815613,401.425873 481.815796,401.921112 
	C481.825378,425.388184 481.824127,448.855225 481.824127,472.625946 
	C473.417236,472.625946 465.029816,472.625946 456.099701,472.625946 
	C456.099701,470.865997 456.099762,469.252136 456.099670,467.638245 
	C456.098419,449.309357 456.103149,430.980469 456.088928,412.651581 
	C456.086975,410.153015 456.387604,407.555450 455.797943,405.190796 
	C455.405182,403.615814 453.679993,402.373108 452.551147,400.981628 
	C451.262726,402.191620 449.218262,403.207092 448.846222,404.652863 
	C448.113403,407.500732 448.153839,410.586914 448.145142,413.575287 
	C448.092773,431.570801 448.117065,449.566498 448.115723,467.562134 
	C448.115601,469.187103 448.115692,470.812073 448.115692,472.681030 
	C439.398895,472.681030 431.129242,472.681030 422.077789,472.681030 
	C422.077789,465.336975 422.077789,457.918457 422.077789,449.999969 
z"/>
<path fill="#FDFDFD" opacity="1.000000" stroke="none" 
	d="
M268.954529,409.000122 
	C268.954529,430.458618 268.954529,451.417114 268.954529,472.649780 
	C260.129242,472.649780 251.702469,472.649780 242.931656,472.649780 
	C242.818436,471.014465 242.701584,469.326599 242.535675,466.930298 
	C238.115616,471.840454 233.225311,474.353424 227.007294,474.283173 
	C215.712952,474.155518 209.612625,468.731384 209.172409,457.340027 
	C208.805862,447.854980 208.973770,438.348206 208.955444,428.850983 
	C208.929153,415.222382 208.948746,401.593689 208.948746,387.775238 
	C217.645935,387.775238 225.925690,387.775238 234.968201,387.775238 
	C234.968201,389.457184 234.967194,391.188446 234.968369,392.919708 
	C234.981476,412.248413 234.981888,431.577179 235.028030,450.905792 
	C235.032776,452.893982 234.888718,455.055786 235.611542,456.807861 
	C236.090851,457.969666 237.956726,459.111145 239.270599,459.195862 
	C240.255188,459.259308 241.966858,457.793854 242.264984,456.709503 
	C242.870178,454.508331 242.880249,452.104584 242.886078,449.783691 
	C242.933746,430.788269 242.923996,411.792755 242.931503,392.797241 
	C242.932144,391.170197 242.931595,389.543121 242.931595,387.750732 
	C251.676773,387.750732 259.964172,387.750732 268.954529,387.750732 
	C268.954529,394.663147 268.954529,401.581635 268.954529,409.000122 
z"/>
<path fill="#FCFCFC" opacity="1.000000" stroke="none" 
	d="
M354.737488,407.850647 
	C356.843292,395.538300 362.766479,388.802643 374.758728,387.061310 
	C381.337036,386.106079 388.441864,386.349670 394.933990,387.769196 
	C406.055267,390.200897 412.683777,398.518799 413.070831,409.917297 
	C413.522064,423.206696 413.456329,436.536346 413.001129,449.827484 
	C412.547363,463.077179 404.926147,471.954987 391.901276,473.598938 
	C384.786682,474.496918 377.245605,473.940674 370.156799,472.632111 
	C361.222900,470.983032 355.576752,464.449005 355.116547,455.586853 
	C354.299438,439.851990 354.745331,424.051514 354.737488,407.850647 
M380.028381,405.998993 
	C380.019958,421.939209 379.891418,437.881500 380.162262,453.816956 
	C380.194427,455.709015 382.133118,458.845886 383.667908,459.176208 
	C387.143494,459.924286 387.334625,456.545471 387.343384,454.109497 
	C387.401184,438.008759 387.423523,421.906067 387.161163,405.808838 
	C387.134674,404.182587 385.137207,402.588501 384.054413,400.979492 
	C382.732880,402.357513 381.411377,403.735535 380.028381,405.998993 
z"/>
<path fill="#FCFCFC" opacity="1.000000" stroke="none" 
	d="
M157.496353,466.478088 
	C147.592239,475.226379 125.728165,477.012024 114.995529,470.178558 
	C109.731682,466.826996 106.332779,461.799744 106.116348,455.838928 
	C105.543900,440.072845 104.866669,424.219757 105.913620,408.513428 
	C106.803650,395.161041 114.482178,388.094055 127.635780,386.571167 
	C133.620499,385.878265 140.022995,386.340912 145.901688,387.712372 
	C157.011414,390.304199 163.721390,398.472229 164.075424,409.878815 
	C164.508774,423.840607 164.567261,437.863373 163.685898,451.790009 
	C163.374893,456.704651 159.817505,461.413788 157.496353,466.478088 
M130.929428,418.505859 
	C130.967697,430.458191 130.861786,442.414642 131.205093,454.358185 
	C131.254623,456.080811 133.464478,457.741272 134.674591,459.430481 
	C135.904022,457.806519 138.175919,456.198822 138.201492,454.556152 
	C138.454498,438.298462 138.439560,422.033203 138.160477,405.775940 
	C138.132599,404.152313 135.858429,402.567261 134.626770,400.964294 
	C133.429764,402.661591 131.473892,404.243652 131.194901,406.080414 
	C130.627319,409.817352 130.964874,413.691711 130.929428,418.505859 
z"/>
<path fill="#FAFAFA" opacity="1.000000" stroke="none" 
	d="
M505.597809,472.643799 
	C492.495270,467.784698 488.824371,460.728210 490.281036,443.095734 
	C493.980469,443.095734 497.746368,443.095764 501.512299,443.095764 
	C505.147583,443.095764 508.782867,443.095734 513.245056,443.095734 
	C513.245056,447.149506 513.057617,450.932495 513.309265,454.686066 
	C513.484741,457.303558 514.487061,459.616608 517.898926,459.369537 
	C521.125549,459.135834 521.847839,457.055756 522.159851,454.275452 
	C522.855225,448.078613 521.277039,443.493530 515.162598,440.480591 
	C509.082489,437.484589 503.391449,433.664917 497.665588,429.994629 
	C492.906067,426.943665 490.059082,422.389679 489.817078,416.759155 
	C489.583405,411.322357 489.620453,405.787994 490.388824,400.418152 
	C491.170471,394.955566 494.909241,391.270905 499.999237,389.148315 
	C509.948486,384.999451 520.158508,384.865814 530.271057,388.108490 
	C540.250305,391.308472 543.983215,396.857544 544.219299,407.379486 
	C544.270752,409.674347 544.226807,411.971313 544.226807,414.389862 
	C543.215942,414.563568 542.587891,414.763245 541.959106,414.765411 
	C535.307251,414.788177 528.655334,414.779510 521.065979,414.779510 
	C521.065979,411.681122 521.512634,408.677155 520.906738,405.903107 
	C520.512085,404.096161 518.826843,401.571472 517.296753,401.222382 
	C514.212402,400.518646 513.226379,403.153656 512.913879,405.917145 
	C512.290527,411.428558 513.945740,415.720123 519.087219,418.374603 
	C522.630737,420.204010 526.082947,422.210815 529.630249,424.032440 
	C544.952515,431.900757 548.921326,439.993317 545.686279,456.911743 
	C543.743774,467.070435 537.054138,473.202759 525.797791,473.842316 
	C519.234070,474.215271 512.590332,473.178711 505.597809,472.643799 
z"/>
<path fill="#FCFCFC" opacity="1.000000" stroke="none" 
	d="
M199.887604,471.667450 
	C191.117889,472.137238 182.419418,472.137238 173.402679,472.137238 
	C173.402679,438.185638 173.402679,403.809326 173.402679,369.171631 
	C182.051819,369.171631 190.654633,369.171631 199.958862,369.171631 
	C199.958862,403.072266 199.958862,437.134979 199.887604,471.667450 
z"/>
<path fill="#FBFBFB" opacity="1.000000" stroke="none" 
	d="
M278.933228,389.198303 
	C279.524933,384.822754 279.745178,380.713867 279.978241,376.365875 
	C288.529724,376.365875 296.921875,376.365875 305.725098,376.365875 
	C305.725098,380.724854 305.725098,384.830597 305.725098,389.200897 
	C308.175781,389.443420 310.251373,389.648804 312.570679,389.878326 
	C312.570679,394.078796 312.570679,398.154572 312.570679,402.600037 
	C310.460419,402.786530 308.396851,402.968903 305.800842,403.198334 
	C305.800842,410.066193 305.798279,416.851562 305.801483,423.636963 
	C305.805817,432.799194 305.766663,441.961761 305.836334,451.123505 
	C305.893677,458.666412 305.951874,458.665985 313.903564,459.589813 
	C313.903564,461.616577 313.903595,463.723969 313.903595,465.831360 
	C313.903595,467.973267 313.903564,470.115173 313.903564,473.394623 
	C305.332733,472.826874 297.059296,472.762268 288.950623,471.573883 
	C283.423523,470.763855 280.097260,465.612183 280.013214,459.253632 
	C279.790802,442.431458 279.790497,425.606354 279.704376,408.782410 
	C279.695190,406.990723 279.703156,405.198975 279.703156,403.277435 
	C277.583649,403.039581 275.997803,402.861633 274.223633,402.662537 
	C274.223633,398.384247 274.223633,394.259338 274.223633,389.863037 
	C275.648834,389.732269 277.105316,389.598602 278.933228,389.198303 
z"/>
<path fill="#FAFAFA" opacity="1.000000" stroke="none" 
	d="
M327.127380,387.563904 
	C333.256439,387.563904 338.905212,387.563904 344.886353,387.563904 
	C344.886353,416.063690 344.886353,444.260284 344.886353,472.697937 
	C336.149963,472.697937 327.578583,472.697937 318.741455,472.697937 
	C318.741455,444.375122 318.741455,416.280701 318.741455,387.563873 
	C321.433838,387.563873 324.040466,387.563873 327.127380,387.563904 
z"/>
<path fill="#F8F8F8" opacity="1.000000" stroke="none" 
	d="
M325.132507,382.096222 
	C322.834381,382.096222 321.018066,382.096222 318.836090,382.096222 
	C318.836090,377.763153 318.836090,373.700989 318.836090,369.265381 
	C327.407776,369.265381 336.086304,369.265381 344.999023,369.265381 
	C344.999023,373.357239 344.999023,377.428864 344.999023,382.096222 
	C338.463440,382.096222 332.038879,382.096222 325.132507,382.096222 
z"/>
<path fill="#070707" opacity="1.000000" stroke="none" 
	d="
M366.243774,270.327454 
	C364.308380,270.327454 362.832581,270.327454 360.459351,270.327454 
	C363.710754,242.979980 366.904358,216.118561 370.097961,189.257126 
	C370.348114,189.256042 370.598267,189.254944 370.848419,189.253860 
	C373.381287,216.017807 375.914185,242.781738 378.521057,270.327484 
	C374.501373,270.327484 370.602386,270.327484 366.243774,270.327454 
z"/>
<path fill="#0F0F0F" opacity="1.000000" stroke="none" 
	d="
M380.059113,405.556274 
	C381.411377,403.735535 382.732880,402.357513 384.054413,400.979492 
	C385.137207,402.588501 387.134674,404.182587 387.161163,405.808838 
	C387.423523,421.906067 387.401184,438.008759 387.343384,454.109497 
	C387.334625,456.545471 387.143494,459.924286 383.667908,459.176208 
	C382.133118,458.845886 380.194427,455.709015 380.162262,453.816956 
	C379.891418,437.881500 380.019958,421.939209 380.059113,405.556274 
z"/>
<path fill="#0E0E0E" opacity="1.000000" stroke="none" 
	d="
M130.929428,418.007660 
	C130.964874,413.691711 130.627319,409.817352 131.194901,406.080414 
	C131.473892,404.243652 133.429764,402.661591 134.626770,400.964294 
	C135.858429,402.567261 138.132599,404.152313 138.160477,405.775940 
	C138.439560,422.033203 138.454498,438.298462 138.201492,454.556152 
	C138.175919,456.198822 135.904022,457.806519 134.674591,459.430481 
	C133.464478,457.741272 131.254623,456.080811 131.205093,454.358185 
	C130.861786,442.414642 130.967697,430.458191 130.929428,418.007660 
z"/>
</svg>